<mxfile host="app.diagrams.net" agent="Mozilla/5.0 (Macintosh; Intel Mac OS X 10_15_7) AppleWebKit/537.36 (KHTML, like Gecko) Chrome/127.0.0.0 Safari/537.36" version="24.7.7">
  <diagram id="Iuk3INWK6WERBL2NvJCp" name="第 1 页">
    <mxGraphModel dx="896" dy="1763" grid="1" gridSize="10" guides="1" tooltips="1" connect="1" arrows="1" fold="1" page="1" pageScale="1" pageWidth="827" pageHeight="1169" math="0" shadow="0">
      <root>
        <mxCell id="0" />
        <mxCell id="1" parent="0" />
        <mxCell id="Zyi6MPLsJ4-3QmAOe-YW-1" value="&lt;font style=&quot;font-size: 8px;&quot;&gt;level[31]&lt;/font&gt;" style="rounded=0;whiteSpace=wrap;html=1;" parent="1" vertex="1">
          <mxGeometry x="200" y="120" width="50" height="30" as="geometry" />
        </mxCell>
        <mxCell id="Zyi6MPLsJ4-3QmAOe-YW-2" value="..." style="rounded=0;whiteSpace=wrap;html=1;" parent="1" vertex="1">
          <mxGeometry x="200" y="150" width="50" height="30" as="geometry" />
        </mxCell>
        <mxCell id="Zyi6MPLsJ4-3QmAOe-YW-3" style="edgeStyle=orthogonalEdgeStyle;rounded=0;orthogonalLoop=1;jettySize=auto;html=1;exitX=1;exitY=0.5;exitDx=0;exitDy=0;entryX=0.5;entryY=0;entryDx=0;entryDy=0;curved=1;" parent="1" target="Zyi6MPLsJ4-3QmAOe-YW-32" edge="1">
          <mxGeometry relative="1" as="geometry">
            <mxPoint x="242.5" y="195" as="sourcePoint" />
            <mxPoint x="687.5" y="180" as="targetPoint" />
            <Array as="points">
              <mxPoint x="270" y="195" />
              <mxPoint x="270" y="20" />
              <mxPoint x="990" y="20" />
            </Array>
          </mxGeometry>
        </mxCell>
        <mxCell id="Zyi6MPLsJ4-3QmAOe-YW-4" value="&lt;span style=&quot;font-size: 8px;&quot;&gt;level[4]&lt;/span&gt;" style="rounded=0;whiteSpace=wrap;html=1;" parent="1" vertex="1">
          <mxGeometry x="200" y="180" width="50" height="30" as="geometry" />
        </mxCell>
        <mxCell id="Zyi6MPLsJ4-3QmAOe-YW-5" style="edgeStyle=orthogonalEdgeStyle;rounded=0;orthogonalLoop=1;jettySize=auto;html=1;entryX=0.5;entryY=0;entryDx=0;entryDy=0;curved=1;" parent="1" source="Zyi6MPLsJ4-3QmAOe-YW-6" target="Zyi6MPLsJ4-3QmAOe-YW-16" edge="1">
          <mxGeometry relative="1" as="geometry">
            <Array as="points">
              <mxPoint x="270" y="225" />
              <mxPoint x="270" y="150" />
              <mxPoint x="465" y="150" />
            </Array>
          </mxGeometry>
        </mxCell>
        <mxCell id="Zyi6MPLsJ4-3QmAOe-YW-6" value="&lt;span style=&quot;font-size: 8px;&quot;&gt;level[3]&lt;/span&gt;" style="rounded=0;whiteSpace=wrap;html=1;" parent="1" vertex="1">
          <mxGeometry x="200" y="210" width="50" height="30" as="geometry" />
        </mxCell>
        <mxCell id="Zyi6MPLsJ4-3QmAOe-YW-7" style="edgeStyle=orthogonalEdgeStyle;rounded=0;orthogonalLoop=1;jettySize=auto;html=1;entryX=0.5;entryY=0;entryDx=0;entryDy=0;curved=1;" parent="1" source="Zyi6MPLsJ4-3QmAOe-YW-8" target="Zyi6MPLsJ4-3QmAOe-YW-16" edge="1">
          <mxGeometry relative="1" as="geometry">
            <Array as="points">
              <mxPoint x="280" y="255" />
              <mxPoint x="280" y="170" />
              <mxPoint x="465" y="170" />
            </Array>
          </mxGeometry>
        </mxCell>
        <mxCell id="Zyi6MPLsJ4-3QmAOe-YW-8" value="&lt;span style=&quot;font-size: 8px;&quot;&gt;level[2]&lt;/span&gt;" style="rounded=0;whiteSpace=wrap;html=1;" parent="1" vertex="1">
          <mxGeometry x="200" y="240" width="50" height="30" as="geometry" />
        </mxCell>
        <mxCell id="Zyi6MPLsJ4-3QmAOe-YW-9" style="edgeStyle=orthogonalEdgeStyle;rounded=0;orthogonalLoop=1;jettySize=auto;html=1;entryX=0.5;entryY=0;entryDx=0;entryDy=0;elbow=vertical;curved=1;" parent="1" source="Zyi6MPLsJ4-3QmAOe-YW-10" target="Zyi6MPLsJ4-3QmAOe-YW-16" edge="1">
          <mxGeometry relative="1" as="geometry">
            <Array as="points">
              <mxPoint x="290" y="285" />
              <mxPoint x="290" y="190" />
              <mxPoint x="465" y="190" />
            </Array>
          </mxGeometry>
        </mxCell>
        <mxCell id="Zyi6MPLsJ4-3QmAOe-YW-10" value="&lt;span style=&quot;font-size: 8px;&quot;&gt;level[1]&lt;/span&gt;" style="rounded=0;whiteSpace=wrap;html=1;" parent="1" vertex="1">
          <mxGeometry x="200" y="270" width="50" height="30" as="geometry" />
        </mxCell>
        <mxCell id="Zyi6MPLsJ4-3QmAOe-YW-11" style="edgeStyle=orthogonalEdgeStyle;rounded=0;orthogonalLoop=1;jettySize=auto;html=1;entryX=0.5;entryY=0;entryDx=0;entryDy=0;curved=1;" parent="1" source="Zyi6MPLsJ4-3QmAOe-YW-12" target="Zyi6MPLsJ4-3QmAOe-YW-16" edge="1">
          <mxGeometry relative="1" as="geometry">
            <Array as="points">
              <mxPoint x="310" y="315" />
              <mxPoint x="310" y="200" />
              <mxPoint x="465" y="200" />
            </Array>
          </mxGeometry>
        </mxCell>
        <mxCell id="Zyi6MPLsJ4-3QmAOe-YW-12" value="&lt;span style=&quot;font-size: 8px;&quot;&gt;level[0]&lt;/span&gt;" style="rounded=0;whiteSpace=wrap;html=1;" parent="1" vertex="1">
          <mxGeometry x="200" y="300" width="50" height="30" as="geometry" />
        </mxCell>
        <mxCell id="Zyi6MPLsJ4-3QmAOe-YW-13" value="&lt;span style=&quot;font-size: 8px;&quot;&gt;score&lt;/span&gt;" style="rounded=0;whiteSpace=wrap;html=1;" parent="1" vertex="1">
          <mxGeometry x="200" y="360" width="50" height="30" as="geometry" />
        </mxCell>
        <mxCell id="Zyi6MPLsJ4-3QmAOe-YW-14" value="&lt;span style=&quot;font-size: 8px;&quot;&gt;ele&lt;/span&gt;" style="rounded=0;whiteSpace=wrap;html=1;" parent="1" vertex="1">
          <mxGeometry x="200" y="390" width="50" height="30" as="geometry" />
        </mxCell>
        <mxCell id="Zyi6MPLsJ4-3QmAOe-YW-15" style="edgeStyle=orthogonalEdgeStyle;rounded=0;orthogonalLoop=1;jettySize=auto;html=1;entryX=0.5;entryY=0;entryDx=0;entryDy=0;curved=1;" parent="1" source="Zyi6MPLsJ4-3QmAOe-YW-16" target="Zyi6MPLsJ4-3QmAOe-YW-32" edge="1">
          <mxGeometry relative="1" as="geometry">
            <Array as="points">
              <mxPoint x="510" y="243" />
              <mxPoint x="510" y="70" />
              <mxPoint x="990" y="70" />
            </Array>
          </mxGeometry>
        </mxCell>
        <mxCell id="Zyi6MPLsJ4-3QmAOe-YW-16" value="&lt;span style=&quot;font-size: 8px;&quot;&gt;level[3]&lt;/span&gt;" style="rounded=0;whiteSpace=wrap;html=1;" parent="1" vertex="1">
          <mxGeometry x="440" y="228" width="50" height="30" as="geometry" />
        </mxCell>
        <mxCell id="Zyi6MPLsJ4-3QmAOe-YW-17" style="edgeStyle=orthogonalEdgeStyle;rounded=0;orthogonalLoop=1;jettySize=auto;html=1;entryX=0.5;entryY=0;entryDx=0;entryDy=0;curved=1;" parent="1" source="Zyi6MPLsJ4-3QmAOe-YW-18" target="Zyi6MPLsJ4-3QmAOe-YW-32" edge="1">
          <mxGeometry relative="1" as="geometry">
            <Array as="points">
              <mxPoint x="540" y="273" />
              <mxPoint x="540" y="100" />
              <mxPoint x="990" y="100" />
            </Array>
          </mxGeometry>
        </mxCell>
        <mxCell id="Zyi6MPLsJ4-3QmAOe-YW-18" value="&lt;span style=&quot;font-size: 8px;&quot;&gt;level[2]&lt;/span&gt;" style="rounded=0;whiteSpace=wrap;html=1;" parent="1" vertex="1">
          <mxGeometry x="440" y="258" width="50" height="30" as="geometry" />
        </mxCell>
        <mxCell id="Zyi6MPLsJ4-3QmAOe-YW-19" style="edgeStyle=orthogonalEdgeStyle;rounded=0;orthogonalLoop=1;jettySize=auto;html=1;entryX=0.5;entryY=0;entryDx=0;entryDy=0;curved=1;" parent="1" source="Zyi6MPLsJ4-3QmAOe-YW-20" target="Zyi6MPLsJ4-3QmAOe-YW-26" edge="1">
          <mxGeometry relative="1" as="geometry">
            <Array as="points">
              <mxPoint x="550" y="303" />
              <mxPoint x="550" y="190" />
              <mxPoint x="739" y="190" />
            </Array>
          </mxGeometry>
        </mxCell>
        <mxCell id="Zyi6MPLsJ4-3QmAOe-YW-20" value="&lt;span style=&quot;font-size: 8px;&quot;&gt;level[1]&lt;/span&gt;" style="rounded=0;whiteSpace=wrap;html=1;" parent="1" vertex="1">
          <mxGeometry x="440" y="288" width="50" height="30" as="geometry" />
        </mxCell>
        <mxCell id="Zyi6MPLsJ4-3QmAOe-YW-21" style="edgeStyle=orthogonalEdgeStyle;rounded=0;orthogonalLoop=1;jettySize=auto;html=1;entryX=0.5;entryY=0;entryDx=0;entryDy=0;curved=1;" parent="1" source="Zyi6MPLsJ4-3QmAOe-YW-22" target="Zyi6MPLsJ4-3QmAOe-YW-26" edge="1">
          <mxGeometry relative="1" as="geometry">
            <Array as="points">
              <mxPoint x="570" y="333" />
              <mxPoint x="570" y="230" />
              <mxPoint x="739" y="230" />
            </Array>
          </mxGeometry>
        </mxCell>
        <mxCell id="Zyi6MPLsJ4-3QmAOe-YW-22" value="&lt;span style=&quot;font-size: 8px;&quot;&gt;level[0]&lt;/span&gt;" style="rounded=0;whiteSpace=wrap;html=1;" parent="1" vertex="1">
          <mxGeometry x="440" y="318" width="50" height="30" as="geometry" />
        </mxCell>
        <mxCell id="Zyi6MPLsJ4-3QmAOe-YW-23" value="&lt;span style=&quot;font-size: 8px;&quot;&gt;score&lt;/span&gt;" style="rounded=0;whiteSpace=wrap;html=1;" parent="1" vertex="1">
          <mxGeometry x="440" y="378" width="50" height="30" as="geometry" />
        </mxCell>
        <mxCell id="Zyi6MPLsJ4-3QmAOe-YW-24" value="&lt;span style=&quot;font-size: 8px;&quot;&gt;ele&lt;/span&gt;" style="rounded=0;whiteSpace=wrap;html=1;" parent="1" vertex="1">
          <mxGeometry x="440" y="408" width="50" height="30" as="geometry" />
        </mxCell>
        <mxCell id="Zyi6MPLsJ4-3QmAOe-YW-25" style="edgeStyle=orthogonalEdgeStyle;rounded=0;orthogonalLoop=1;jettySize=auto;html=1;entryX=0.5;entryY=0;entryDx=0;entryDy=0;curved=1;" parent="1" source="Zyi6MPLsJ4-3QmAOe-YW-26" target="Zyi6MPLsJ4-3QmAOe-YW-32" edge="1">
          <mxGeometry relative="1" as="geometry">
            <Array as="points">
              <mxPoint x="820" y="293" />
              <mxPoint x="820" y="120" />
              <mxPoint x="990" y="120" />
            </Array>
          </mxGeometry>
        </mxCell>
        <mxCell id="Zyi6MPLsJ4-3QmAOe-YW-26" value="&lt;span style=&quot;font-size: 8px;&quot;&gt;level[1]&lt;/span&gt;" style="rounded=0;whiteSpace=wrap;html=1;" parent="1" vertex="1">
          <mxGeometry x="714" y="277.5" width="50" height="30" as="geometry" />
        </mxCell>
        <mxCell id="Zyi6MPLsJ4-3QmAOe-YW-27" style="edgeStyle=orthogonalEdgeStyle;rounded=0;orthogonalLoop=1;jettySize=auto;html=1;entryX=0.5;entryY=0;entryDx=0;entryDy=0;curved=1;" parent="1" source="Zyi6MPLsJ4-3QmAOe-YW-28" target="Zyi6MPLsJ4-3QmAOe-YW-32" edge="1">
          <mxGeometry relative="1" as="geometry">
            <Array as="points">
              <mxPoint x="840" y="323" />
              <mxPoint x="840" y="139" />
              <mxPoint x="990" y="139" />
            </Array>
          </mxGeometry>
        </mxCell>
        <mxCell id="Zyi6MPLsJ4-3QmAOe-YW-28" value="&lt;span style=&quot;font-size: 8px;&quot;&gt;level[0]&lt;/span&gt;" style="rounded=0;whiteSpace=wrap;html=1;" parent="1" vertex="1">
          <mxGeometry x="714" y="307.5" width="50" height="30" as="geometry" />
        </mxCell>
        <mxCell id="Zyi6MPLsJ4-3QmAOe-YW-29" value="&lt;span style=&quot;font-size: 8px;&quot;&gt;score&lt;/span&gt;" style="rounded=0;whiteSpace=wrap;html=1;" parent="1" vertex="1">
          <mxGeometry x="714" y="367.5" width="50" height="30" as="geometry" />
        </mxCell>
        <mxCell id="Zyi6MPLsJ4-3QmAOe-YW-30" value="&lt;span style=&quot;font-size: 8px;&quot;&gt;ele&lt;/span&gt;" style="rounded=0;whiteSpace=wrap;html=1;" parent="1" vertex="1">
          <mxGeometry x="714" y="397.5" width="50" height="30" as="geometry" />
        </mxCell>
        <mxCell id="Zyi6MPLsJ4-3QmAOe-YW-31" style="edgeStyle=orthogonalEdgeStyle;rounded=0;orthogonalLoop=1;jettySize=auto;html=1;" parent="1" source="Zyi6MPLsJ4-3QmAOe-YW-32" edge="1">
          <mxGeometry relative="1" as="geometry">
            <mxPoint x="1075" y="174" as="targetPoint" />
          </mxGeometry>
        </mxCell>
        <mxCell id="Zyi6MPLsJ4-3QmAOe-YW-32" value="&lt;span style=&quot;font-size: 8px;&quot;&gt;level[4]&lt;/span&gt;" style="rounded=0;whiteSpace=wrap;html=1;" parent="1" vertex="1">
          <mxGeometry x="965" y="159" width="50" height="30" as="geometry" />
        </mxCell>
        <mxCell id="Zyi6MPLsJ4-3QmAOe-YW-33" style="edgeStyle=orthogonalEdgeStyle;rounded=0;orthogonalLoop=1;jettySize=auto;html=1;" parent="1" source="Zyi6MPLsJ4-3QmAOe-YW-34" edge="1">
          <mxGeometry relative="1" as="geometry">
            <mxPoint x="1075" y="204" as="targetPoint" />
          </mxGeometry>
        </mxCell>
        <mxCell id="Zyi6MPLsJ4-3QmAOe-YW-34" value="&lt;span style=&quot;font-size: 8px;&quot;&gt;level[3]&lt;/span&gt;" style="rounded=0;whiteSpace=wrap;html=1;" parent="1" vertex="1">
          <mxGeometry x="965" y="189" width="50" height="30" as="geometry" />
        </mxCell>
        <mxCell id="Zyi6MPLsJ4-3QmAOe-YW-35" style="edgeStyle=orthogonalEdgeStyle;rounded=0;orthogonalLoop=1;jettySize=auto;html=1;" parent="1" source="Zyi6MPLsJ4-3QmAOe-YW-36" edge="1">
          <mxGeometry relative="1" as="geometry">
            <mxPoint x="1075" y="234" as="targetPoint" />
          </mxGeometry>
        </mxCell>
        <mxCell id="Zyi6MPLsJ4-3QmAOe-YW-36" value="&lt;span style=&quot;font-size: 8px;&quot;&gt;level[2]&lt;/span&gt;" style="rounded=0;whiteSpace=wrap;html=1;" parent="1" vertex="1">
          <mxGeometry x="965" y="219" width="50" height="30" as="geometry" />
        </mxCell>
        <mxCell id="Zyi6MPLsJ4-3QmAOe-YW-37" style="edgeStyle=orthogonalEdgeStyle;rounded=0;orthogonalLoop=1;jettySize=auto;html=1;" parent="1" source="Zyi6MPLsJ4-3QmAOe-YW-38" edge="1">
          <mxGeometry relative="1" as="geometry">
            <mxPoint x="1075" y="264" as="targetPoint" />
          </mxGeometry>
        </mxCell>
        <mxCell id="Zyi6MPLsJ4-3QmAOe-YW-38" value="&lt;span style=&quot;font-size: 8px;&quot;&gt;level[1]&lt;/span&gt;" style="rounded=0;whiteSpace=wrap;html=1;" parent="1" vertex="1">
          <mxGeometry x="965" y="249" width="50" height="30" as="geometry" />
        </mxCell>
        <mxCell id="Zyi6MPLsJ4-3QmAOe-YW-39" style="edgeStyle=orthogonalEdgeStyle;rounded=0;orthogonalLoop=1;jettySize=auto;html=1;exitX=1;exitY=0.5;exitDx=0;exitDy=0;" parent="1" source="Zyi6MPLsJ4-3QmAOe-YW-40" edge="1">
          <mxGeometry relative="1" as="geometry">
            <mxPoint x="1075" y="294" as="targetPoint" />
          </mxGeometry>
        </mxCell>
        <mxCell id="Zyi6MPLsJ4-3QmAOe-YW-40" value="&lt;span style=&quot;font-size: 8px;&quot;&gt;level[0]&lt;/span&gt;" style="rounded=0;whiteSpace=wrap;html=1;" parent="1" vertex="1">
          <mxGeometry x="965" y="279" width="50" height="30" as="geometry" />
        </mxCell>
        <mxCell id="Zyi6MPLsJ4-3QmAOe-YW-41" value="&lt;span style=&quot;font-size: 8px;&quot;&gt;score&lt;/span&gt;" style="rounded=0;whiteSpace=wrap;html=1;" parent="1" vertex="1">
          <mxGeometry x="965" y="339" width="50" height="30" as="geometry" />
        </mxCell>
        <mxCell id="Zyi6MPLsJ4-3QmAOe-YW-42" value="&lt;span style=&quot;font-size: 8px;&quot;&gt;ele&lt;/span&gt;" style="rounded=0;whiteSpace=wrap;html=1;" parent="1" vertex="1">
          <mxGeometry x="965" y="369" width="50" height="30" as="geometry" />
        </mxCell>
        <mxCell id="Zyi6MPLsJ4-3QmAOe-YW-43" style="edgeStyle=orthogonalEdgeStyle;rounded=0;orthogonalLoop=1;jettySize=auto;html=1;entryX=0.5;entryY=1;entryDx=0;entryDy=0;curved=1;" parent="1" source="Zyi6MPLsJ4-3QmAOe-YW-44" target="Zyi6MPLsJ4-3QmAOe-YW-14" edge="1">
          <mxGeometry relative="1" as="geometry">
            <Array as="points">
              <mxPoint x="140" y="345" />
              <mxPoint x="140" y="440" />
              <mxPoint x="225" y="440" />
            </Array>
          </mxGeometry>
        </mxCell>
        <mxCell id="Zyi6MPLsJ4-3QmAOe-YW-44" value="&lt;span style=&quot;font-size: 8px;&quot;&gt;header&lt;/span&gt;" style="rounded=0;whiteSpace=wrap;html=1;" parent="1" vertex="1">
          <mxGeometry x="30" y="330" width="50" height="30" as="geometry" />
        </mxCell>
        <mxCell id="Zyi6MPLsJ4-3QmAOe-YW-45" style="edgeStyle=orthogonalEdgeStyle;rounded=0;orthogonalLoop=1;jettySize=auto;html=1;entryX=0.5;entryY=1;entryDx=0;entryDy=0;curved=1;" parent="1" source="Zyi6MPLsJ4-3QmAOe-YW-46" target="Zyi6MPLsJ4-3QmAOe-YW-42" edge="1">
          <mxGeometry relative="1" as="geometry">
            <Array as="points">
              <mxPoint x="130" y="375" />
              <mxPoint x="130" y="480" />
              <mxPoint x="990" y="480" />
            </Array>
          </mxGeometry>
        </mxCell>
        <mxCell id="Zyi6MPLsJ4-3QmAOe-YW-46" value="&lt;span style=&quot;font-size: 8px;&quot;&gt;tail&lt;/span&gt;" style="rounded=0;whiteSpace=wrap;html=1;" parent="1" vertex="1">
          <mxGeometry x="30" y="360" width="50" height="30" as="geometry" />
        </mxCell>
        <mxCell id="Zyi6MPLsJ4-3QmAOe-YW-47" value="&lt;span style=&quot;font-size: 8px;&quot;&gt;level: 5&lt;/span&gt;" style="rounded=0;whiteSpace=wrap;html=1;" parent="1" vertex="1">
          <mxGeometry x="30" y="390" width="50" height="30" as="geometry" />
        </mxCell>
        <mxCell id="Zyi6MPLsJ4-3QmAOe-YW-48" value="&lt;span style=&quot;font-size: 8px;&quot;&gt;length: 3&lt;/span&gt;" style="rounded=0;whiteSpace=wrap;html=1;" parent="1" vertex="1">
          <mxGeometry x="30" y="420" width="50" height="30" as="geometry" />
        </mxCell>
        <mxCell id="Zyi6MPLsJ4-3QmAOe-YW-49" value="" style="endArrow=classic;html=1;rounded=0;exitX=1;exitY=0.5;exitDx=0;exitDy=0;edgeStyle=orthogonalEdgeStyle;curved=1;" parent="1" source="Zyi6MPLsJ4-3QmAOe-YW-1" edge="1">
          <mxGeometry width="50" height="50" relative="1" as="geometry">
            <mxPoint x="310" y="100" as="sourcePoint" />
            <mxPoint x="260" y="40" as="targetPoint" />
            <Array as="points">
              <mxPoint x="260" y="135" />
              <mxPoint x="260" y="60" />
            </Array>
          </mxGeometry>
        </mxCell>
        <mxCell id="Zyi6MPLsJ4-3QmAOe-YW-50" value="NULL" style="text;html=1;align=center;verticalAlign=middle;resizable=0;points=[];autosize=1;strokeColor=none;fillColor=none;" parent="1" vertex="1">
          <mxGeometry x="240" y="13" width="50" height="30" as="geometry" />
        </mxCell>
        <mxCell id="Zyi6MPLsJ4-3QmAOe-YW-51" value="&lt;span style=&quot;font-size: 8px;&quot;&gt;backward&lt;/span&gt;" style="rounded=0;whiteSpace=wrap;html=1;" parent="1" vertex="1">
          <mxGeometry x="200" y="330" width="50" height="30" as="geometry" />
        </mxCell>
        <mxCell id="VElmKGyjz9DRnz6BZ7Tx-12" style="edgeStyle=orthogonalEdgeStyle;rounded=0;orthogonalLoop=1;jettySize=auto;html=1;curved=1;" edge="1" parent="1" source="Zyi6MPLsJ4-3QmAOe-YW-52">
          <mxGeometry relative="1" as="geometry">
            <mxPoint x="380" y="363" as="targetPoint" />
          </mxGeometry>
        </mxCell>
        <mxCell id="Zyi6MPLsJ4-3QmAOe-YW-52" value="&lt;span style=&quot;font-size: 8px;&quot;&gt;backward&lt;/span&gt;" style="rounded=0;whiteSpace=wrap;html=1;" parent="1" vertex="1">
          <mxGeometry x="440" y="348" width="50" height="30" as="geometry" />
        </mxCell>
        <mxCell id="Zyi6MPLsJ4-3QmAOe-YW-53" style="edgeStyle=orthogonalEdgeStyle;rounded=0;orthogonalLoop=1;jettySize=auto;html=1;exitX=0;exitY=0.5;exitDx=0;exitDy=0;entryX=0.5;entryY=1;entryDx=0;entryDy=0;curved=1;" parent="1" source="Zyi6MPLsJ4-3QmAOe-YW-54" target="Zyi6MPLsJ4-3QmAOe-YW-24" edge="1">
          <mxGeometry relative="1" as="geometry">
            <Array as="points">
              <mxPoint x="640" y="353" />
              <mxPoint x="640" y="458" />
              <mxPoint x="465" y="458" />
            </Array>
          </mxGeometry>
        </mxCell>
        <mxCell id="Zyi6MPLsJ4-3QmAOe-YW-54" value="&lt;span style=&quot;font-size: 8px;&quot;&gt;backward&lt;/span&gt;" style="rounded=0;whiteSpace=wrap;html=1;" parent="1" vertex="1">
          <mxGeometry x="714" y="337.5" width="50" height="30" as="geometry" />
        </mxCell>
        <mxCell id="Zyi6MPLsJ4-3QmAOe-YW-55" style="edgeStyle=orthogonalEdgeStyle;rounded=0;orthogonalLoop=1;jettySize=auto;html=1;entryX=0.5;entryY=1;entryDx=0;entryDy=0;curved=1;" parent="1" source="Zyi6MPLsJ4-3QmAOe-YW-56" target="Zyi6MPLsJ4-3QmAOe-YW-30" edge="1">
          <mxGeometry relative="1" as="geometry">
            <Array as="points">
              <mxPoint x="910" y="324" />
              <mxPoint x="910" y="448" />
              <mxPoint x="739" y="448" />
            </Array>
          </mxGeometry>
        </mxCell>
        <mxCell id="Zyi6MPLsJ4-3QmAOe-YW-56" value="&lt;span style=&quot;font-size: 8px;&quot;&gt;backward&lt;/span&gt;" style="rounded=0;whiteSpace=wrap;html=1;" parent="1" vertex="1">
          <mxGeometry x="965" y="309" width="50" height="30" as="geometry" />
        </mxCell>
        <mxCell id="Zyi6MPLsJ4-3QmAOe-YW-57" value="0" style="text;html=1;align=center;verticalAlign=middle;resizable=0;points=[];autosize=1;strokeColor=none;fillColor=none;" parent="1" vertex="1">
          <mxGeometry x="236" y="60" width="30" height="30" as="geometry" />
        </mxCell>
        <mxCell id="Zyi6MPLsJ4-3QmAOe-YW-58" value="3" style="text;html=1;align=center;verticalAlign=middle;resizable=0;points=[];autosize=1;strokeColor=none;fillColor=none;" parent="1" vertex="1">
          <mxGeometry x="590" y="-5" width="30" height="30" as="geometry" />
        </mxCell>
        <mxCell id="Zyi6MPLsJ4-3QmAOe-YW-59" value="1" style="text;html=1;align=center;verticalAlign=middle;resizable=0;points=[];autosize=1;strokeColor=none;fillColor=none;" parent="1" vertex="1">
          <mxGeometry x="340" y="127" width="30" height="30" as="geometry" />
        </mxCell>
        <mxCell id="Zyi6MPLsJ4-3QmAOe-YW-60" value="1" style="text;html=1;align=center;verticalAlign=middle;resizable=0;points=[];autosize=1;strokeColor=none;fillColor=none;" parent="1" vertex="1">
          <mxGeometry x="330" y="150" width="30" height="30" as="geometry" />
        </mxCell>
        <mxCell id="Zyi6MPLsJ4-3QmAOe-YW-61" value="1" style="text;html=1;align=center;verticalAlign=middle;resizable=0;points=[];autosize=1;strokeColor=none;fillColor=none;" parent="1" vertex="1">
          <mxGeometry x="315" y="171" width="30" height="30" as="geometry" />
        </mxCell>
        <mxCell id="Zyi6MPLsJ4-3QmAOe-YW-62" value="1" style="text;html=1;align=center;verticalAlign=middle;resizable=0;points=[];autosize=1;strokeColor=none;fillColor=none;" parent="1" vertex="1">
          <mxGeometry x="300" y="200" width="30" height="30" as="geometry" />
        </mxCell>
        <mxCell id="Zyi6MPLsJ4-3QmAOe-YW-63" value="2" style="text;html=1;align=center;verticalAlign=middle;resizable=0;points=[];autosize=1;strokeColor=none;fillColor=none;" parent="1" vertex="1">
          <mxGeometry x="694" y="43" width="30" height="30" as="geometry" />
        </mxCell>
        <mxCell id="Zyi6MPLsJ4-3QmAOe-YW-64" value="2" style="text;html=1;align=center;verticalAlign=middle;resizable=0;points=[];autosize=1;strokeColor=none;fillColor=none;" parent="1" vertex="1">
          <mxGeometry x="700" y="77" width="30" height="30" as="geometry" />
        </mxCell>
        <mxCell id="Zyi6MPLsJ4-3QmAOe-YW-65" value="1" style="text;html=1;align=center;verticalAlign=middle;resizable=0;points=[];autosize=1;strokeColor=none;fillColor=none;" parent="1" vertex="1">
          <mxGeometry x="807" y="135" width="30" height="30" as="geometry" />
        </mxCell>
        <mxCell id="Zyi6MPLsJ4-3QmAOe-YW-66" value="1" style="text;html=1;align=center;verticalAlign=middle;resizable=0;points=[];autosize=1;strokeColor=none;fillColor=none;" parent="1" vertex="1">
          <mxGeometry x="832" y="150" width="30" height="30" as="geometry" />
        </mxCell>
        <mxCell id="Zyi6MPLsJ4-3QmAOe-YW-67" value="1" style="text;html=1;align=center;verticalAlign=middle;resizable=0;points=[];autosize=1;strokeColor=none;fillColor=none;" parent="1" vertex="1">
          <mxGeometry x="620" y="165" width="30" height="30" as="geometry" />
        </mxCell>
        <mxCell id="Zyi6MPLsJ4-3QmAOe-YW-68" value="1" style="text;html=1;align=center;verticalAlign=middle;resizable=0;points=[];autosize=1;strokeColor=none;fillColor=none;" parent="1" vertex="1">
          <mxGeometry x="620" y="207" width="30" height="30" as="geometry" />
        </mxCell>
        <mxCell id="Zyi6MPLsJ4-3QmAOe-YW-69" value="NULL" style="text;html=1;align=center;verticalAlign=middle;resizable=0;points=[];autosize=1;strokeColor=none;fillColor=none;" parent="1" vertex="1">
          <mxGeometry x="1069" y="159" width="50" height="30" as="geometry" />
        </mxCell>
        <mxCell id="Zyi6MPLsJ4-3QmAOe-YW-70" value="NULL" style="text;html=1;align=center;verticalAlign=middle;resizable=0;points=[];autosize=1;strokeColor=none;fillColor=none;" parent="1" vertex="1">
          <mxGeometry x="1069" y="189" width="50" height="30" as="geometry" />
        </mxCell>
        <mxCell id="Zyi6MPLsJ4-3QmAOe-YW-71" value="NULL" style="text;html=1;align=center;verticalAlign=middle;resizable=0;points=[];autosize=1;strokeColor=none;fillColor=none;" parent="1" vertex="1">
          <mxGeometry x="1069" y="219" width="50" height="30" as="geometry" />
        </mxCell>
        <mxCell id="Zyi6MPLsJ4-3QmAOe-YW-72" value="NULL" style="text;html=1;align=center;verticalAlign=middle;resizable=0;points=[];autosize=1;strokeColor=none;fillColor=none;" parent="1" vertex="1">
          <mxGeometry x="1069" y="249" width="50" height="30" as="geometry" />
        </mxCell>
        <mxCell id="Zyi6MPLsJ4-3QmAOe-YW-73" value="NULL" style="text;html=1;align=center;verticalAlign=middle;resizable=0;points=[];autosize=1;strokeColor=none;fillColor=none;" parent="1" vertex="1">
          <mxGeometry x="1069" y="279" width="50" height="30" as="geometry" />
        </mxCell>
        <mxCell id="Zyi6MPLsJ4-3QmAOe-YW-74" value="0" style="text;html=1;align=center;verticalAlign=middle;resizable=0;points=[];autosize=1;strokeColor=none;fillColor=none;" parent="1" vertex="1">
          <mxGeometry x="1029" y="150" width="30" height="30" as="geometry" />
        </mxCell>
        <mxCell id="Zyi6MPLsJ4-3QmAOe-YW-75" value="0" style="text;html=1;align=center;verticalAlign=middle;resizable=0;points=[];autosize=1;strokeColor=none;fillColor=none;" parent="1" vertex="1">
          <mxGeometry x="1029" y="180" width="30" height="30" as="geometry" />
        </mxCell>
        <mxCell id="Zyi6MPLsJ4-3QmAOe-YW-76" value="0" style="text;html=1;align=center;verticalAlign=middle;resizable=0;points=[];autosize=1;strokeColor=none;fillColor=none;" parent="1" vertex="1">
          <mxGeometry x="1030" y="207" width="30" height="30" as="geometry" />
        </mxCell>
        <mxCell id="Zyi6MPLsJ4-3QmAOe-YW-77" value="0" style="text;html=1;align=center;verticalAlign=middle;resizable=0;points=[];autosize=1;strokeColor=none;fillColor=none;" parent="1" vertex="1">
          <mxGeometry x="1030" y="241" width="30" height="30" as="geometry" />
        </mxCell>
        <mxCell id="Zyi6MPLsJ4-3QmAOe-YW-78" value="0" style="text;html=1;align=center;verticalAlign=middle;resizable=0;points=[];autosize=1;strokeColor=none;fillColor=none;" parent="1" vertex="1">
          <mxGeometry x="1030" y="271" width="30" height="30" as="geometry" />
        </mxCell>
        <mxCell id="VElmKGyjz9DRnz6BZ7Tx-13" value="NULL" style="text;html=1;align=center;verticalAlign=middle;resizable=0;points=[];autosize=1;strokeColor=none;fillColor=none;" vertex="1" parent="1">
          <mxGeometry x="330" y="348" width="50" height="30" as="geometry" />
        </mxCell>
      </root>
    </mxGraphModel>
  </diagram>
</mxfile>
